<svg xmlns="http://www.w3.org/2000/svg" viewBox="0 0 663.66 531.69"><g id="Layer_2" data-name="Layer 2"><g id="Layer_1-2" data-name="Layer 1"><path d="M428.41,0c14,26.81,25.73,54.78,43.21,79.73,8.28,11.82,15.72,24.24,21.11,37.73a46.65,46.65,0,0,1,1.43,31.17c-3.39,11.7-6.87,23.42-7.68,35.71-1.4,21.23,7.78,37.95,22,52.6,5.45,5.6,12.15,6.6,19.38,5.62a123.51,123.51,0,0,0,49.34-17.68c9.59-5.95,19-11.86,27.6-19.26a28.49,28.49,0,0,1,22.18-6.9c7.64.73,12.77,5.66,18.17,10.48-1,1.3-2.35.8-3.27,1.45a3.11,3.11,0,0,0-1.52,3.26c.36,1.68,1.74.83,2.63.68,6.89-1.14,13.74.74,20.62.25V218a6.41,6.41,0,0,1-4,.68,37.72,37.72,0,0,0-23,6.26c-3.54,2.34-7.59,2.65-11.58,3-2.59.24-2.3-2.37-2.9-3.88-.72-1.79.82-2,2.06-2.42,1.85-.64,5,0,5.32-1.83s-2.78-2.77-4.43-4c-3.25-2.38-6.57-4.7-10-6.85-3.74-2.35-7.34-.35-7.57,4a20,20,0,0,0,1.67,8.68c1,2.44,2.34,3.76,5.06,2.18a7.36,7.36,0,0,1,2-.53c.69,1.07-.14,1.49-.63,1.93a31.16,31.16,0,0,1-7.73,5c-14,6.61-26.3,16-38.89,24.84-7.08,5-11.44,12.46-16,19.64-7,11-14.41,21.56-24.63,29.84a21.87,21.87,0,0,1-5.77,3.76c-.42-1.14.5-2.87-1.86-3.06-1.63-.13-.29-1.47.21-2.05,3.56-4.22,7.21-8.37,10.79-12.58q7-8.25,14-16.55c2.93-3.48,4.62-7.13,1.38-11.38-.76-1,.22-1.56.73-2.13,2.18-2.47,4.32-5,6.66-7.3,1.88-1.86,1.25-2.66-.89-3.47A56.3,56.3,0,0,0,535,246.36c-9.13-.24-18.26-.06-27.59-.06.6,1.73,1.3,2.67,3.32,1.93a12.66,12.66,0,0,1,3.77-.38c2.49-.1,3.46.94,2.9,3.53-.37,1.74-.22,3.6-.45,5.39-.12,1-.07,2.36-1.47,2.47-1.2.1-1.34-1.16-1.76-2-.24-.45-.45-.92-.81-1.66-1.64,1.73-1.39,4.12-2.91,5.86-2.05-1.9-1.84-4.91-3.53-6.91-1.75.73-1.82,3.17-4,3.69-.83-2.15.13-4.4-.63-7.33-1,2.63-1.72,4.57-2.5,6.48-.34.81-.35,2.19-1.52,2-1-.13-.66-1.39-.81-2.19,0-.31-.09-.63-.21-1.43L493,262.66c-.43-3.85.75-6.65.45-9.67l-4.76,12.15-.85-.15V250.13h-.45c-.68,2.43-1.21,4.92-2.09,7.27a13.31,13.31,0,0,1-11,9c-1.71.28-3.41.65-4.86-1.18,0,1.35,0,2.69,0,4,0,.52-.05,1.13-.76,1.21s-.9-.5-1-1c-.53-2-1-4.08-1.73-7-.43,2-.68,3.22-.94,4.39-.2.9-.14,2.11-1.42,2.14-1.05,0-1.19-1-1.49-1.81-.19-.48-.39-1-.59-1.43-1.08.11-.77.9-.91,1.43-.27,1,.36,2.81-1.33,2.69-1.28-.09-.84-1.72-.91-2.72a17.17,17.17,0,0,1,1.52-9,4.81,4.81,0,0,0,.63-3.52c-2.74,2.66-9.06-.79-8.28,7.19-2.69-4.37-5.43-3.51-8.41-1.94-5.73,3-11.29,6.36-17.33,8.78-8.74,3.51-16.77,1.9-24.52-2.91.48-1,1.36-.68,1.94-.53,2.65.69,2.9-1.17,3.48-2.94.74-2.24-.89-2.46-2.26-3-.8-.29-1.6-.58-2.41-.84-2-.63-3.37-1.35-.65-3,1.5-.94.89-1.82-.12-2.76-2.71-2.54-5.38-5.13-8.05-7.7-1.05-1-1.84-2.26-1.31-3.7.93-2.51,0-4.35-1.79-5.91-4.17-3.68-5.42-8.43-5.22-13.74a5,5,0,0,0-1.52-4,5.88,5.88,0,0,1-1.56-7c1.34-3.37.58-6.67-.38-10-1.56-5.4-3.53-10.7-4.36-16.29a18,18,0,0,1-.37-5,14.69,14.69,0,0,0-1.45-9.21,4.45,4.45,0,0,1,1-5.56,5.43,5.43,0,0,0,1.67-4.57c-.06-3.72,0-7.44,0-11.15,0-.85-.25-1.87.12-2.52,2.41-4.26.16-7-2.64-10-5.1-5.41-6.61-12.38-6.74-19.45-.2-10.62-1.28-21.18-1.4-31.8,0-1.13-.44-2.58.65-3.28s2.12.59,3,1.17c6.71,4.24,13.38,8.55,20.51,12.25-1.85-1.4-3.69-2.82-5.56-4.21-5.81-4.29-11.61-8.61-16.57-13.91-3.92-4.18-4.75-9.11-2.44-13.43,1-1.91,1.95-2.42,3.88-.85,6.08,4.92,12.3,9.68,18.92,14.07-1.39-1.5-2.75-3-4.17-4.49-3.94-4-7.9-8-11-12.8-3.66-5.66-5.83-11.79-5.52-18.63,0-.89-.46-2.15.67-2.54s1.6.83,2.25,1.46c8.17,7.89,16.31,15.81,24.85,23.45-3.8-5.9-7.55-11.83-11.4-17.69-3.54-5.38-6.35-11-7.18-17.52a25.12,25.12,0,0,1,.68-8.52c.13-.64.09-1.67,1.08-1.72s1.11.87,1.5,1.47c2.78,4.27,5.42,8.64,8.33,12.82,11.19,16.09,24.4,30.52,37.37,45.14a17,17,0,0,0,3.75,3.47c-3-3.6-6-7.13-8.9-10.82-9.69-12.53-19.49-25-25.11-40.07C395,23.09,392.9,16.12,395,8.74c.11-.38.28-.75.52-1.34,1.78,1.12,2.25,2.95,3.06,4.45,2.83,5.23,5.71,10.45,8.24,15.83,6.82,14.54,16.68,26.82,27.94,38.08a63.39,63.39,0,0,1,12.14,17.06c5.36,10.92,11.5,21.25,19.92,30.19,8.18,8.69,10,19.19,7.15,30.55a144.72,144.72,0,0,0-4.52,39.73c.17,5.93.66,11.87,1.38,17.76.88,7.25,4.46,13.16,11.06,18.66-1.07-3.35-1.92-5.94-2.71-8.55-.23-.76-1-1.77,0-2.29s1.41.65,1.87,1.3a16.66,16.66,0,0,0,3,3.56c-.83-2.56-1.49-5.2-2.53-7.68-3.34-8-1.22-16.34-1.32-24.53,0-2.94,3.23-5,2.54-8.29a28,28,0,0,0-.74-3.36c-.35-1-.75-2.31.1-3,2.28-1.93,1.56-4.16,1-6.44a117.16,117.16,0,0,1-3.49-25.14c-.14-10.51-5.74-19.15-11.66-27.43a11.14,11.14,0,0,1-2.6-6c4.05,3.13,6.21,7.33,10,9.94.85-1.44-.14-2.11-.59-2.84-3.28-5.34-6.55-10.69-10-15.93-1.47-2.25-1.28-3.51,1.53-3.74,3.48-.28,2.19-1.81.93-3.31-12.86-15.2-21.9-32.83-31.81-49.91-3.26-5.61-5.46-11.74-7.6-17.86s-2-12.08-.72-18.22Zm21.76,158.54.2-.42q-7.62-4.91-15.22-9.81c-1-.66-2.52-1.11-1.75-2.86.85-1.91,2.25-1,3.53-.65,1.94.54,3.86,1.54,6.64.27A102.4,102.4,0,0,1,417.24,135c-8.07-4.45-15.73-9.57-23.55-14.46a2.22,2.22,0,0,0,.71.94q15,12.36,30,24.73c.93.76,2.47,1.42,1.5,3-1.16,1.89-2.44.43-3.51-.19-7.29-4.15-14.55-8.36-21.82-12.55l-19.46-11.21c16.66,13.12,34.62,23.88,54.55,31.14-2.19-2.14-2.62-2.66-2.09-3.26,1.3-1.48,2.56-.11,3.72.33C441.59,155.08,445.87,156.83,450.17,158.54Zm-36.79-38.95-.43.66c2.15,1.67,4.72,2.65,7.12,3.89Q433.51,131.09,447,138c.93.47,2.33,1.88,3,.51.85-1.66-1.29-1.81-2.25-2.31-3.21-1.66-6.5-3.14-9.76-4.7Zm.07,65.4-.19,1.16L451,191.7l.12-.84Zm10.29,35.78c-11.59.46-23.11-1.15-34.69-1A145.92,145.92,0,0,0,423.74,220.77Zm6.8-54.79c-.1.3-.2.6-.29.9a26.9,26.9,0,0,0,17.41,5.17Z"/><path d="M202.09,531.69,193.36,521l-.68.3c.11,1.65.22,3.3.31,5,0,.7.36,1.57-.53,2-.65.28-1.22-.2-1.74-.55a21.61,21.61,0,0,1-7.4-9c-.59-1.25-1.23-2.47-1.83-3.71-.45-.93-1-1.44-1.88-.44-1.48,1.64-2.42.7-3.08-.75-2.25-4.9-6.15-8.65-9-13.09-8.2-12.74-19-23.4-27.82-35.58-6.53-9-13.24-17.9-19.66-27a11.26,11.26,0,0,1-2.1-6.25c-.08-2.72-1.57-4-3.84-4.82a18.37,18.37,0,0,0-3.07-.84c-19.27-3-38.12-8.22-57.46-11-6.65-1-12.91-4-17.2-9.83-1.49-2-1.33-3.06,1.17-3.77s4.74-1.6,7.53-2.56l-4.7-4c1.67-1.24,3.3-1,5-.92,9.57.43,18.87,2.85,28.37,3.83a47.4,47.4,0,0,0,13.92-.73c1.22-.23,2.4-.9,4.17-.42-2.88,5.52-8.62,4-12.89,5.65.35,1.08,1.89.68,2.1,2.09-2.13,1.09-4.38.14-7.21,0,3.81,2.86,6.36,5.87,6.75,10.22.12,1.41,1.33,1.54,2.36,1.7,4.92.76,9.86,1.48,14.79,2.18.51.07,1.32.12,1.53-.16,2.42-3.28,6.36-3.05,9.67-4.18,2.24-.77,2.93-1.68,1.84-3.9-.75-1.54-2-3.11-.41-5,.9-1.06-.37-1.21-1-1.32-2.88-.54-1.94-1.71-.61-3.08a46.11,46.11,0,0,1,20.33-12.05c2.09-.61,4.19-1.42,6.93-.62l-9.73,7.49.41.65L131.3,394c2.92-1.49,5.94-2.33,9.2-1.21,1.56.54,2.38,1.18,1,3-1,1.29-3.71,2.1-2.63,4,.55,1,3.12.79,4.77,1.12l1.56.32c3.68.75,3.68.75,1.91,4.52,2.46-1.35,4.54-2.51,6.65-3.64.55-.29,1.2-.69,1.75-.08.71.79,0,1.39-.49,1.88a47.43,47.43,0,0,0-6.07,6.19c2.26-1.55,4.48-3.16,6.8-4.61,1.08-.67,2.22-2.43,3.49-1.37s-1.2,1.94-1,3.26c1,.51,2.77-1.22,3,.31.32,2-2.14,2.92-3.1,4.8,1.66-.17,2.48-1.48,3.67-2.1.62-.33,1.27-1.14,2-.44s-.08,1.39-.48,1.94c-3.25,4.47-6.54,8.91-9.8,13.37A7.73,7.73,0,0,0,152,428.3c2.45-3.27,4.86-6.55,7.35-9.78,2.73-3.56,5.58-7,9.9-8.76,1.16-.48,2.69-1.39,3.58-.49,1.1,1.1-.44,2.27-1,3.26-3.72,6.32-7.52,12.59-11.27,18.88-.52.86-1.3,1.65-1.2,2.83,1.5.28,1.63-.93,2-1.65,2.22-3.87,4.35-7.79,6.59-11.64.53-.91.77-2.64,2.29-2.12,1.3.45-.09,1.94.61,3.17l4.11-4.6.79.36-9.83,28.45c1.5-1.45,1.51-1.45,2-2.77,2.1-5.34,4.16-10.69,6.3-16,.43-1.07.63-2.68,2.59-1.73,1.33.65,1.59-.65,2-1.41.93-1.62,1.52-3.45,3.55-4.63q-2.17,12.52-4.34,25.06c1.9-6.53,3.59-13.13,6.48-20.25,1.93,4.93.42,9.61,3.2,13.6.94-7.45,1.88-14.9,2.91-23-1.48,1.88-.87,3.49-1.31,4.86-.2.62-.4,1.27-1.22,1.2-.64-.07-.79-.63-.93-1.15a12.8,12.8,0,0,1,.15-7.84c1.32-3.55.43-6.43-2.41-8.83-1.46-1.23-3-2.4-4.32-3.77-1.77-1.83-3.23-3-5.73-.71-2,1.8-3.41-.66-4.89-1.59s-.94-2.42-.19-3.64c1.06-1.71,2.88-2.45,4.54-3.39s3.57-1.81,4.09-4.55c-3.07,1.34-4.94,3.53-7,5.33-1.57,1.32-2.81,1.62-4.45.31a36.86,36.86,0,0,0-3.73-2.45c-1.41-.89-2.23-1.77-.31-3,.34-.22,1.28-.68.42-1.1-3.47-1.68-.51-3.15.33-4.12,2.18-2.53,5.49-3.07,8.54-3.94,2.65-.76,5.31-1.46,7.34-3.34,0-1.71-3.37-.11-2.24-2.41.5-1,1.91-1.55,3.39-2.67-2.62-.51-5.1.76-7-1.16-2.2-2.24-.82-3.93,1.33-6-2.11,0-3.55,0-5,0-2.67,0-2.67,0-1.45-2.42-1.57-.49-3.14.21-5.7,0,3.88-3.79,7-7.25,11.93-8.08,6.59-1.12,13.22-2,19.83-2.94a2.05,2.05,0,0,1,.95,0c5.69,2.27,10.79.27,16.1-1.72,5.93-2.22,12.39-1.43,18.59-2.26,8.35-1.11,16.07-3.69,23-8.72s13.35-5.45,20-.55A38.22,38.22,0,0,0,288,340.54c1.1.25,3,0,2.87,1.84s-1.88,1.32-3,1.54c-2.46.48-5,.85-8.07,1.37,1.92,1.17,3.36,2,4.75,2.9.78.5,1.8,1,1.3,2.21-.41,1-1.34.84-2.19.75-4.64-.52-9.27-1.11-13.92-1.53-2-.18-2.44-.73-1.86-2.8,1.81-6.44-3.13-11.73-9.76-10.68-4.32.68-7.1,7.54-4.39,11,1.23,1.56,3.66.8,5.12,2.25-.78,1.24-2,1.2-3.1,1.41-9.26,1.86-18.55,3.56-27.79,5.53a60.81,60.81,0,0,0-23.33,9.87c-.31-1.48.66-1.82,1.16-2.4,3.53-4.11,3.23-7.94-1.54-10.56-6.68-3.66-12.18-4-17,2.77-.51.7-1.25,1.46-.38,2.21,1.57,1.36,0,2.19-.69,3.79,1.82,0,3.36,0,4.89,0,.52,0,1.11,0,1.4.54s-.16,1.05-.59,1.31c-1.42.84-2.22,1.7-1.12,3.46.24.36-.61,1.47-1,2.18-1.51,2.5-3.4,4.78-4.54,7.51,1,.56,1.67,0,2.26-.34,2.2-1.35,4-1.25,5.23,1.27.31.63.75,1.56,1.6,1.22,1.12-.45.57-1.45.28-2.2-.55-1.38-1.19-2.72-1.78-4.08-.38-.87-.39-2.18.74-1.77,4.32,1.57,6.59-1.82,9.76-3.54A99.72,99.72,0,0,1,196,383.12a31.38,31.38,0,0,1-12.51,12.19c.58.45.86.82,1.21.92,8.61,2.45,10.84,9.11,11.08,17,.16,5.09.63,10.16,1.05,15.23.55,6.51,4.23,12,5.84,18.13,3.5,13.35,7.42,26.59,10,40.16,1.94,10,7.21,18.26,13.89,25.75.93,1,2.9,2.07,2,3.55-.73,1.26-2.76.61-4.18.4-5.65-.88-10.16-4.08-15.35-8.16,1.56,4.4,2.82,7.88,4,11.38.4,1.16,1.31,2.51-.1,3.46s-2.11-.54-2.94-1.21a126.45,126.45,0,0,0-11.06-8.29c1.54,4.69,3.1,9.38,4.62,14.07.44,1.37,1.32,2.82-.35,4Z"/><path d="M0,300.27a80.57,80.57,0,0,1,27.3-11.84c.7-.16,1.54-.62,2.05.14s-.85,1-.93,1.95c2-.19,4.08-1.42,5.47,1.08.76,1.37.87,2.26-.55,3.18-3.56,2.31-7.08,4.69-10.61,7.05-1,.66-1.87,1-2.61-.37s-1.88-1.38-3.29-1.07A52.06,52.06,0,0,1,9,301.65c-1.19.07-3.38,1.24-3.47-1.72,0-1.07-1-.17-1.43,0-1.38.51-2.58,1.5-4.12,1.62Z"/><path d="M201.89,217c-5.35-1.15-10.32-3.47-15-3-10,1.1-19.82-1.15-29.73-1.07a5.13,5.13,0,0,1-1.57-.2c-.76-.25-2,0-2.14-1-.19-1.2,1.17-.91,1.82-1.33.25-.15.52-.27,1-.49-2.74-.29-5.28-.54-7.8-.86-.71-.09-1.59-.28-1.43-1.3.13-.8.92-.8,1.54-.81,3.89,0,7.78,0,12.06,0-.88-1.58-2-1.46-3-1.7-4.83-1.27-9.67-2.49-14.49-3.77-.87-.23-2.12-.34-2.1-1.56s1.29-1.15,2.17-1.37c1-.26,2.06-.47,3.49-.79-1.35-1.41-3-1.21-4.38-1.76s-4.08-.29-3.86-1.89c.29-2.06,2.83-.93,4.37-1.07a31.74,31.74,0,0,0,5.87-.61c-2.3-1.17-4.65-2.25-6.9-3.53-1.12-.64-3.41-.77-2.42-2.91.84-1.81,2.44-.57,3.63-.17,15.28,5.17,30.55,10.41,45.84,15.58,1.09.37,2.42,1.64,3.44.32s.16-2.7-.42-3.92c-1.29-2.72-3.39-4.87-5.42-7-.81-.87-1.65-1.67-1.6-3,.15-3.78-1.85-6.67-3.94-9.51a19.49,19.49,0,0,1-4-8.88c-.33-2.32.48-2.4,2.21-1.62a8.44,8.44,0,0,0,3.74.94c-3.29-2.57-6.6-5.11-9.85-7.73-1-.78-2.8-1.47-1.51-3.2,1.1-1.48,2.32-.21,3.36.36a71.94,71.94,0,0,0,9.81,4.8c-1.52-1.1-3-2.22-4.57-3.3a37.46,37.46,0,0,1-8.55-7.58c-.73-1-2-2.05-1-3.35,1.21-1.5,2.28.06,3.27.61a46.83,46.83,0,0,0,6.07,3.18c-2.29-3.2-4.62-6.38-6.84-9.63-.57-.83-2.17-1.78-.88-2.87,1-.86,2.16.29,3.05,1,4,3.29,8,6.59,12.28,9.57-2.34-2.67-4.7-5.34-7-8-.54-.63-1.45-1.29-1.12-2.15.4-1.07,1.61-.77,2.53-.89a6.39,6.39,0,0,1,5,1.61c10.82,8.57,21.76,17,32.52,25.66,9,7.22,15.28,16.18,16.92,27.9.09.68.56,1.42-.21,2-1.73-1.78-1.75-1.68-5.52-2.54-3.51-.8-7-1.84-10.62-2.39,2.52,1,5.06,2,7.56,3,1,.42,2.8.5,2.58,1.88-.27,1.71-2.08.93-3.24,1a34.9,34.9,0,0,1-5.41,0c-2.53-.22-3.25.83-3.34,3.3-.07,2.11,1.64,5.2-3.15,6L225.6,211c-.19,1.72-2,.93-2.37,2,.45.92,1.37,1,2.14,1.28,2.18.76,2.42,1.55,2.15,4.26-.43,4.48-3.23,4-5.82,4.61-3.09.7-6.21,1.27-9.27,2.18,3.53-.25,7.07-.46,10.6-.79a11.86,11.86,0,0,1,3.47.11c2.43.48,4.19,1.82,4.59,4.26s-1.71,3.25-3.29,4.18c-3.3,2-7.2,1.5-11.71,2.59,5.74,0,10.54,0,15.35,0,1.16,0,2.93-.55,3.18,1.19.23,1.54-1.52,1.5-2.53,1.88a88.93,88.93,0,0,0-10.86,4.56c3.83-.89,7.67-1.77,11.5-2.67,1.74-.41,3.48-.87,2.3,2-.79,1.94.38,1.92,1.72,1.74s2.93-.42,4.41-.6c.6-.07,1.42-.36,1.68.39.36,1-.62,1.21-1.25,1.5-3.85,1.76-7.72,3.49-11.49,5.65l5.3-1.33c-.18.62-.17,1-.34,1.13-8.44,6.18-17.11,11.9-27.79,13.48-3.13.46-5.67,1.75-6.88,4.91a5.11,5.11,0,0,1-3.6,2.88c-1.81.58-3.64,1.11-6.29,1.92,5,.69,9.28,1.05,13.05,3.22,1,.57,2.57.88,2.51,2.13s-1.76,1.27-2.8,1.62q-13,4.39-26,8.7a7.67,7.67,0,0,1-3.72.71c-1.47-.26-2.53-.83-1.56-2.54.9-1.56.89-2.43-1.24-2.71-1.12-.15-2.91,0-3-1.69s1.59-1.82,2.67-2.35c3-1.49,6.14-2.86,10.17-4.72H165.77c2.09-2.37,4.58-2.22,6.72-3.78-1.59-.07-2.78-.09-4-.19-.83-.07-1.87,0-2-1.14s.9-1.32,1.69-1.55c4.08-1.18,8.17-2.31,12.25-3.47.51-.14,1-.35,1.49-.54a2,2,0,0,0-.16-.65c-.69-1-2.66-1.41-2.07-2.79s2.3-.68,3.52-.68c7.12,0,14.24-.07,21.35,0,2.26,0,3.12-.49,2.26-2.94-2.18-6.23-1.68-7.17,4.32-9.44a9.21,9.21,0,0,0,3.26-1.88l-13.31,3.93c.34-2.43,2.57-2.86,3.28-4.38-.74-.55-1.35-.19-1.95-.11s-1.77.36-1.82.21c-.8-2.09-2.89-1.51-4.22-2.29-1.14-.68,1.1-1.34,1.29-2.35-.82-.79-2.44.34-2.94-1.16-.21-.63,0-.73,4-3.13-2.62.17-5.24.35-7.86.51-.93,0-2,.39-2.6-.64-.47-.8.19-1.38.62-2,.18-.26.56-.67.49-.78-2.29-3.71,1.59-3.17,3.3-4.55l-7.17-.36c-.14-1.71,1.56-1.32,1.75-2.4-.47-1-1.88-.17-2.46-1.32.58-1.32,2.29-.68,3.2-1.83-1.41-.87-3.15-.53-4.7-.88-1.94-.44-2.91-1-.68-2.72-2.67-.49-5-.9-7.26-1.34-.59-.11-1.43-.11-1.4-.95s.9-.79,1.47-.75c5.26.32,10.33-.89,15.45-1.8a10.21,10.21,0,0,1,6.21.87C198.46,218.19,199.89,218.91,201.89,217Z"/><path d="M447.63,276.15c.69-2.07.46-3.55,1.66-4.78,1.73,1.72,2.57,3.92,3.61,5.94.88,1.69-.56,1.79-1.71,2.18-1.55.52-4.14-.14-4.46,1.48-.26,1.37,2.2,2.26,3.44,3.38,1.86,1.68,3.79,2.82,4.22,6,.3,2.21-.54,2-1.58,2.26-1.64.4-3.34.58-5.28.89l2.82,1.09c.06,1.43-1.45,1.55-2,2.83,2.52.3,4.9.57,7.27.89.87.12,1.77.4,1.64,1.54-.11.92-.92,1.06-1.68,1.13-.53,0-1.06,0-1.6,0q-18.16,0-36.33,0c-.88,0-2.12.47-2.53-.69-.31-.9.73-1.43,1.3-2,2.66-2.71,5.35-5.39,8-8.1-1-1.17-2.43.09-3.63-1.12l3.8-5c-2.16.48-3.87.83-5.57,1.24a14.22,14.22,0,0,1-10.2-1.19c-1.06-.54-2-1.06-3.24-.24-4.13,2.8-8.32,5.51-12.47,8.29a6.15,6.15,0,0,0-1.87,1.71c-5,8.39-14,11.29-21.78,15.87a6.76,6.76,0,0,0-2.32,1.86c2.92-.62,5.84-1.26,8.77-1.85,1.56-.33,3-.43,2,1.93-.63,1.5.43,1.95,1.54,2.09,2,.26,4,.29,6,.56,1,.13,2.64-.05,2.6,1.16,0,1.45-1.68.86-2.61.84-2.48,0-4.94-.23-7.75-.39.8,1.95,2.37,2.36,3.42,3.32.66.6,1.92.86,1.63,2.06-.24,1-1.36.93-2.13,1.16q-15.41,4.63-30.82,9.19c-6.82,2-13.63,4.08-20.52,5.83-6.67,1.68-12-1-16.54-5.81-1.4-1.5-1.26-2.48.78-3.2,4.95-1.74,9.87-3.57,14.66-5.8-3.43,1-6.89,2-10.29,3.13-3,1-5.35.17-7.63-1.76-1.67-1.41-1.31-2.14.57-2.73,5.68-1.77,11.34-3.59,17-5.34,14.21-4.36,28.14-9.57,42.48-13.52,4.41-1.22,8-3.88,11.55-6.6,5.9-4.52,11.73-9.14,17.58-13.72a13,13,0,0,1,6.34-2.67c8.76-1.3,16.45-5.56,24.3-9.3,5.46-2.6,10.84-5.39,16.28-8,1.11-.54,2.44-1.93,3.51.06s-.77,2.29-1.9,2.87c-3.39,1.75-6.84,3.41-10.24,5.16-.76.39-2.13.49-1.69,1.85a2.15,2.15,0,0,0,2.39,1.22,12.12,12.12,0,0,0,2.81-.45C444.16,272,446.62,271.89,447.63,276.15Z"/><path d="M76.12,253.8c1.83.06,3.23-2.5,5-1.08s-.21,3.25-.64,5.08c3.35.24,6.38.94,8.68,3.46,1.46,1.59,1.75,2.75-.57,3.82-4.62,2.15-9.14,4.51-13.77,6.63a14.49,14.49,0,0,1-5.47,1.59,60.32,60.32,0,0,0-17.18,2.86A8.6,8.6,0,0,1,50,276l11-7.45-.26-.45c-3.93,2-7.85,4-11.81,6-1,.48-2.28,1.75-3.07.47s1-1.82,1.77-2.59,1.84-1.45,2.69-2.24c.55-.5,1.73-.85.93-1.95a1.62,1.62,0,0,0-2.22-.65c-3.8,2.08-7.92,3.76-10.17,7.86a45.64,45.64,0,0,0-2.91,5.3c-.9,2.33-3.55,2.5-4.79,4.35a.68.68,0,0,1-1.18-.41c.21-1.73-1.67-3.92,1.2-5.16.71-.31,1.08-1.5,1.51-2.34,8.94-17.39,22.63-30.06,39.45-39.58,3.57-2,7.54-2.76,11.58-3.24,1.48-.18,3.56.86,4.07-1.77.08-.41.76-.29,1.1,0a2.28,2.28,0,0,1,.94,2.52,13.53,13.53,0,0,1-2.52,4A11.87,11.87,0,0,0,84.9,249.1,6.33,6.33,0,0,0,87,252.92a11.79,11.79,0,0,1,3,3.65c1.43,2.59,3.29,2.65,5.17.36,4.68-5.67,10-8.94,15.67-9.34-2.3,3.49-5.28,6-7.89,8.79-1,1.05-3.07,2-2.48,3.36.69,1.59,2.91.94,4.38.74,7.49-1,14.66-3.4,22-5.29,5.45-1.41,10.75-3.09,15.53-6.34A14.19,14.19,0,0,1,156,247.54c4.25,1.72,8.61,3,13,4.35,1,.29,2.8.12,2.53,1.74-.22,1.25-1.84,1.27-3,1.4-6.21.73-12.43,1.38-18.65,2.09a78.79,78.79,0,0,0-15,2.92,44.77,44.77,0,0,0-20.25,12.72,19.61,19.61,0,0,1-4.48,4.05c-1.52.9-3.13,1.71-5,.79.23-1.41,1.41-1.36,2.16-1.81,2.3-1.36,4.54-2.78,6-5.13,2.87-4.72,1.64-7.28-3.73-7.76-5.17-.46-10.35-.92-15.53-1.31a9.32,9.32,0,0,1-7.17-4.15c-2.16-3-3.21-6.41-4.38-9.87C80.36,249.76,77.37,250.74,76.12,253.8Zm71,1.93c2.3-.1,4.3-.18,6.29-.29.71,0,1.55.07,1.56-1.08,0-3.39-4.6-6.43-8.31-5.16C148.66,251.14,148.18,253.35,147.1,255.73Z"/><path d="M407.44,330.94c-7.8-5.24-16.52-4.83-25-5.67,2.3-2.31,5-2.35,7.71-1.95s5.61,1.2,8.51,1c.95-.05,2.16.15,2.79-.35,3.3-2.63,6.37-1,9.54.19,4.48,1.67,9,3.27,13.49,4.85.94.32,1.84,1.06,3,.64,0-.69-.51-.66-.85-.83-1.05-.54-3-.26-2.76-2,.18-1.57,1.93-1.78,3.18-2.26a5.33,5.33,0,0,1,3.13.16c6.3,1.48,12.56,3.22,18.92,4.33,5.47.95,10.81-.34,14.49-4.69,3.14-3.71,6.92-5.3,11.25-4.27,7.66,1.83,14.4-.11,21.11-3.5a37.33,37.33,0,0,1,12.62-4.22c.73-.09,1.67-.39,2.11.24.63.89-.29,1.56-.83,2.15a13,13,0,0,1-3,2.82c-10.42,5.63-20.52,11.86-32.43,14.28-5.74,1.17-11.28,2.95-17.19,1.5a3.06,3.06,0,0,0-2.46.33c-6.69,4.38-14.13,3.09-21.38,2.67a85.6,85.6,0,0,1-11.28-1.87,7.67,7.67,0,0,0-7.32,2c-6.45,6.13-14.25,8.89-23.08,9.33-6.61.33-12.82,2.86-19.27,4.13-5.93,1.16-11.63,1.28-16.59-2.92-.86-.73-2.36-1.39-2-2.6s2-.82,3.11-.9c9.73-.71,19.46-1.38,29.19-2.08a5.15,5.15,0,0,0,2.07-.65c-5.41.46-10.81.53-16.21.46a28.79,28.79,0,0,1-11.42-2.5c-.74-.32-1.8-.52-1.77-1.58,0-.86,1-1.05,1.59-1.36,2.28-1.15,4.6-2.21,6.87-3.37a10,10,0,0,1,6.17-.79c9.56,1.39,19.14,2.68,28.81.93A14,14,0,0,0,407.44,330.94Z"/><path d="M269.36,238.07a2.43,2.43,0,0,1,2.26-1.26c11.53-.71,20.09-7.38,28.58-14.19,2.4-1.93,4.67-4,7.16-5.83,3.68-2.68,10.25-.43,11.65,3.87.47,1.42-.51,2.42-1.11,3.51-.74,1.35-.43,1.87,1.13,2a3.55,3.55,0,0,0,3.69-1.92c1-1.79,1.36-3.58,0-5.37a17.91,17.91,0,0,0-4.88-4,3.09,3.09,0,0,1-1.64-1.82,33.68,33.68,0,0,1,10.19,3.85A70.27,70.27,0,0,1,337,225c.59.53,1.46,1.18.91,2.14-.42.74-1.33.5-2,.45q-2.54-.17-5.07-.45c-6.48-.72-12.9.37-19.34.7-4.13.21-7.64,2.38-11,4.7-5.81,4-10.59,9.15-15.63,14-.61.59-1.19,1.22-1.83,1.78-1.81,1.57-4.54,1.91-5.86.69-1.56-1.43.89-3,1.85-4.38a13.24,13.24,0,0,1,2.65-2.25c.71-.59,1.72-1,1.3-2.25a2.25,2.25,0,0,0-2.49-1.56c-1.59.06-3.18.15-4.75.34A13.43,13.43,0,0,1,269.36,238.07Z"/><path d="M449.34,72.22A97.78,97.78,0,0,1,432,53.28a138.17,138.17,0,0,1-20.57-42.79c-.27-.91-.49-1.84-.73-2.76a2,2,0,0,1,1.43-2.49c1.16-.51,1.79.23,2.31,1.08,2.17,3.52,4.35,7,6.47,10.58,8.34,13.91,16.8,27.76,24.4,42.1A31.45,31.45,0,0,1,449.34,72.22Z"/><path d="M217.5,282.12c-.82-.12-1.66-.2-2.48-.38a1.91,1.91,0,0,1-1.11-.54c-1.29-1.84-1.27-1.85-4.51-2.7-.15,0-.25-.3-.37-.46,2.64-2.43,7.83-3.06,11.48-1.13,1.84,1,3.52,1.89,5.66,1a1.73,1.73,0,0,1,1.52.13c2.33,2.38,4.9,1,7.43.61a28.77,28.77,0,0,1,3.79-.44c8.6-.18,15.33-4.29,21.43-9.91a35.45,35.45,0,0,1,7-5.43c.74-.4,1.6-.86,2.35-.12s.19,1.59-.31,2.26C265,270.92,260,276,252.55,277.89c-4.53,1.15-9,2.56-13.5,3.71-6,1.52-11.11,4.7-16.41,7.62a80.48,80.48,0,0,1-8.93,4.16c-3.89,1.55-5.05,1-7.44-2.66-.57-.87-1.57-.4-2.36-.4a5,5,0,0,1-4.63-2.23c-1.59-2.51-1.06-3.6,1.92-3.88l16.36-1.5Z"/><path d="M90.71,289a36.22,36.22,0,0,0-6,15.39c-.45,3.57-.72,7.16-1.07,10.74-.08.83.06,1.84-.82,2.27-1.06.53-1.78-.4-2.47-1-1.81-1.54-2.39-3.68-2.68-5.94a10.15,10.15,0,0,0-.68-3.11c-1.71,2.09-2,4.69-3,7-.64,1.53-.3,4.39-2.51,4.18-2.47-.23-2.59-3-2.77-5.1-.3-3.59,1.35-6.82,2.13-10.21.14-.6.22-1.22.37-2.1-1.49.25-1.77,1.33-2.08,2.21-.57,1.59-.84,3.3-1.5,4.85-.43,1,0,3.07-1.71,2.89-1.39-.15-2-1.81-2.26-3.18a10.91,10.91,0,0,1,.28-5c.35-1.18.44-2.22-1.41-1.59-1.67.56-1.64-.91-1.91-1.82-.34-1.13.24-1.82,1.38-2,2-.37,3.94-.82,5.93-1.08a51.94,51.94,0,0,0,17.79-5.62A11.34,11.34,0,0,1,90.71,289Z"/><path d="M16.84,309.57c-.21-2.06,1-2.71,1.93-3.47a88.06,88.06,0,0,1,17.6-11.33,14.65,14.65,0,0,1,1.47-.61c.72-.26,1.53-.49,2,.3s-.34,1.3-.92,1.71-1.25.79-1.88,1.18L20.5,307.5C19.37,308.18,18.2,308.8,16.84,309.57Z"/></g></g></svg>