<svg width="32" height="32" viewBox="0 0 32 32" fill="none" xmlns="http://www.w3.org/2000/svg">
<path d="M26.4762 2.66669H5.52383C4.76607 2.66669 4.03934 2.96771 3.50352 3.50352C2.96771 4.03934 2.66669 4.76607 2.66669 5.52383L2.66669 26.4762C2.66669 27.234 2.96771 27.9607 3.50352 28.4965C4.03934 29.0323 4.76607 29.3334 5.52383 29.3334H13.6935V20.2673H9.94347V16H13.6935V12.7476C13.6935 9.04823 15.8959 7.00478 19.2691 7.00478C20.8845 7.00478 22.5738 7.29288 22.5738 7.29288V10.9238H20.7125C18.8786 10.9238 18.3066 12.0619 18.3066 13.2292V16H22.4006L21.7459 20.2673H18.3066V29.3334H26.4762C27.234 29.3334 27.9607 29.0323 28.4965 28.4965C29.0323 27.9607 29.3334 27.234 29.3334 26.4762V5.52383C29.3334 4.76607 29.0323 4.03934 28.4965 3.50352C27.9607 2.96771 27.234 2.66669 26.4762 2.66669V2.66669Z" fill="#FFFCF3"/>
</svg>
