<svg id="Layer_1" data-name="Layer 1" xmlns="http://www.w3.org/2000/svg" viewBox="0 0 586.28 469.59"><path d="M6892.65,7150.71c-4.9,8.64-6.89,19.33-18.91,24.85,1.86.88,2.72,1.39,3.66,1.71,6.33,2.11,7.58,7.36,8,13.06s.38,11.36,1.39,16.89c.75,4.11,3.19,7.87,4.3,11.95,3.31,12.2,6.91,24.36,9.28,36.75,1.89,9.89,7,17.44,13.51,24.5.41.45.76.95,1.5,1.88-8.06.49-13.07-3.87-18.72-8.35q2.51,6.81,5,13.62l-.89,1.12-13.18-10.89c1.78,5.38,3.75,11.31,5.72,17.24l-1.26.78-9.58-11.27c.21,2.61.4,5,.68,8.56-6.42-3.51-8-9.18-10.69-14.36l-1.9,2.77c-.41-.25-.85-.35-.94-.59-3.09-7.71-10-12.84-13.63-20.17a12.85,12.85,0,0,0-1.61-2.5c-6.18-7.32-12.42-14.59-18.56-21.94-.81-1-1-2.47-1.71-3.51-1.94-2.7-4.07-5.26-6.06-7.92-2.17-2.9-4.28-5.84-6.41-8.76a33.44,33.44,0,0,1-3.47-4.83c-.64-1.32-.55-3-1-5.88-1.86-2.42-5.41-3.21-10.07-3.46-6-.32-11.81-3-17.8-4.18-10.11-1.95-20.3-3.48-31.3-5.33l3.88-.63c-7.8.32-13.51-2.92-18-9.72l9.94-3.27-5.4-3.9c15.53-1.11,30.21,7,45.67,1.55-2.62,3.47-2.62,3.47-14.75,5.11l5.12,1.68-.05.56-8.4-.84c4.24,2.39,7.77,5.14,7.51,11.2l25.47,3.65c.06-.62.13-1.23.19-1.85h-7.55c-.06-.41-.11-.82-.17-1.24l10.8-3.14-2.59-6.12,2.49-2.35-4.55-.68c6.89-7.85,15.45-11.94,25.43-13.7l-11.71,8.91c6.08-.22,10.15-7.39,17.25-3.31l-5.06,5.35,10.56,1.85-3.4,4.9,9.24-5.33.61.75-9.31,8.2.59.78,11.46-7.94.58.57-3.29,4.08L6855,7186l.49.6-5.16,5.5.5.72,6.58-4.69.37.45-20.91,28.45,1,.74c5.15-6.94,10.25-13.91,15.48-20.79a39.49,39.49,0,0,1,5.66-6.3,13.46,13.46,0,0,1,7-3L6852.6,7210l1.82,1.09,8.37-15,.73.24c-.31,1.47-.61,2.93-1.12,5.31l5.55-6.87c-3.22,9.21-6.19,17.69-9.16,26.17l1.47.59,7.73-19.68,1.83,2.09c1.37-2.63,2.57-5,3.93-7.58-3,17.13-5.95,33.83-8.89,50.54l1.64.33c1.86-15.28,3.86-30.53,9.59-45.59.39,4.58.72,8.41,1,12.24l2,0q1.34-10.77,2.65-21.52l-1.39-.18-.77,6.06-1.06,0c0-2.59-.74-5.47.15-7.7,1.69-4.19.12-6.66-2.92-9.06-2-1.56-3.81-3.33-6-5.29l-3.38,2.82-3.9-2.65c.1-5.81,9.65-4.29,8.55-11l-8.69,7.29-6.72-4.35c.7-.44,2.09-1.34,3.48-2.24l-.42-.78-2.91.38c2.81-7.85,12.71-4.51,17.39-10.68l-4.39-.4,6.72-4.33c-4.54,0-8.45,3.29-10.14-2.33l3.65-3.39-8.47.42,4.47-3.15-7.82,1.13c4-3.47,6.79-6.66,11.84-7,5.27-.32,10.47-1.73,15.73-2.27,2-.21,4.17.67,6.26,1,.81.14,1.89.58,2.42.23,8.3-5.55,18.18-3.36,27.2-5.45,5.67-1.32,10.7-3,15.32-6.49,7.58-5.78,13.9-5.2,21.09,1,1.62,1.4,4.16,1.8,6.34,2.48s4.28,1.06,6.43,1.58l-.06,1.33-11,1.63,6.71,4-.24,1.24-16.14-1.73c2.66-3.69,1.28-7.43-1.09-9.77-1.71-1.7-5.79-2.69-8-1.85-4.74,1.8-4.51,6.33-3.31,10.8l5.27,1.25c-16.95,4.69-34.55,4.13-48.77,14.71,2.64-2.26,5.29-5.26,3.4-8.49-3.45-5.89-9.66-5.46-14.54-5.05l-5.78,6.28,2.37,1.32-2.75,2.49,7.39.39-4.07,2.88,2.24,1-6,9.16,1.07.79,4.44-2.15a7.08,7.08,0,0,1,1.09.94,17.68,17.68,0,0,0,1.82,2.82c.19.21,1.89-.54,1.87-.71a13.46,13.46,0,0,0-1-3.19c-.61-1.42-1.33-2.8-1.82-3.82l4.83.59Z" transform="translate(-6712.89 -6826.23)"/><path d="M6876,6949.85c9.8,7.71,19.59,15.45,29.43,23.12,8.75,6.85,14.95,15.25,16.14,27.43-1.19-2.51-2.15-4.51-3.1-6.51l-1.22.64,1.45,2.19-.4,1.09-14.88-4-.24.7,13.11,5.15-.22.82h-10.82v7.84l-4.57.54,11.74,4.15-4.93,1.18,7,2.81-1.93,3.24,1.19,1.69-18.29,3.74.18.73c4.13-.46,8.26-1.13,12.41-1.31,3.49-.16,7.62-1.17,9,4.12-4.48,5.79-11.6,3.07-17.16,5.75H6920l.26,1-13.78,4.93.26,1.14,14.15-3.33-1.71,4.22,8.18-1.16.15.59-14.57,6.55.32.83,7.95-2.46c-7.28,5.11-14.38,10.24-23.33,12-2.94.56-7.16.72-8.4,5.32-.28,1-2.29,1.91-3.66,2.27-7.47,2-14.84,4.76-22.83,3.33-1.12-.21-2.38.34-3.73.08l7.39-2.67-.11-.86h-6.41l-.16-1.11,15.07-4.22-3.83-3.2h25.89c-.61-1.75-1-3.07-1.52-4.29-1.35-3-1.12-5.16,2.34-6.25,1.9-.6,3.72-1.42,5.58-2.14l-.38-1.2-12.84,3.93,5-4.49-6.5.72,3-2.7-5.51,1.19-.21-.5,3.32-2.36h-4.23l-.32-.85,6.28-2.46,0-.64-11.69.82c-1.2-1.94,4.52-2.57-.14-4.66l6-2.16-.06-.43h-8.6l-.06-.41,5.19-1.78-6-.86,4.74-1.29.12-.67-7.84-1.23,3.13-1.86-9.54-1.52,0-.73a64.52,64.52,0,0,0,7.23,0c3.37-.38,6.69-1.42,10.06-1.6,1.66-.09,3.36,1.25,5.11,1.63.83.18,1.81-.36,2.73-.57l-.05-1.4-21.39-4.54-.25.88,7.22,1.87-28.61-2.09-.17-.69,6-1.28-11.42-1.26,0-1.11h12.45l.25-1.3-17.95-4.59v-1.09l8.46-1.4-11-2.81.1-.85h10.2l.28-.8-9.8-4.87.72-1.7,46.69,15.95c1.47-4.86-2.24-7.52-4.62-10.74-.57-.76-2-1.44-2-2,.86-6.36-4.8-9.61-6.48-14.71a38.47,38.47,0,0,1-.9-4.36l8.29,3.78.25-.45-13.72-10.71,1-1.52,15.2,8.49c-5-5.93-13-8.34-16.87-15.36l.74-1.13,10,6.25c-3-4.18-6.33-8.77-9.65-13.35h1.64l14.26,11.8.42-.59q-4.87-5.61-9.76-11.21Zm8.48,49.81-.6,1.74c4.05,2.69,9.32,1.91,13.89,3.14Z" transform="translate(-6712.89 -6826.23)"/><path d="M6951.42,7059.05c-3.79,4.88-7.65,9.76-13.87,11.71-6,1.87-12.11,3.2-18,5.26-3.41,1.19-6.49,3.37-9.72,5.09a26.27,26.27,0,0,1-4,2.07c-3.56,1.18-6.94,4.42-10.89,1l2.9-2.46c-4.45.77-8.48,1.93-9.52-3.78l17.72-1.7.09-1.12-4.73-.65,2.51-1.07,0-.84-6.85-.69c4.72-2.52,10.61-2,12.63.94l4.18-1c.94.92,1.85,2.26,2.23,2.12,6.74-2.56,14.6-.79,20.76-5.41,3.94-2.95,7.64-6.22,11.51-9.28a11.81,11.81,0,0,1,2.49-1.15Z" transform="translate(-6712.89 -6826.23)"/><path d="M6997.25,7026.05c-1.85.3-3.74,1-5.55.84-6.55-.59-11.63,2.75-16.37,6.47-4.28,3.34-8,7.42-12,11.18-.58.54-1.12,1.4-1.78,1.53a28.56,28.56,0,0,1-4.35.21,20.77,20.77,0,0,1,2.36-3.8,28.84,28.84,0,0,1,4.1-3c-.48-3.69-2.86-3.21-5.4-2.85a19.72,19.72,0,0,1-7.77-.32,14.63,14.63,0,0,1,2.71-.65c8.2-.35,14.77-4.56,21.09-9.29,3.61-2.71,7-5.75,10.52-8.53,3-2.3,6.09-1.13,10,3.69l-2.6,4.65h5.08Z" transform="translate(-6712.89 -6826.23)"/><path d="M6861,7076.47c11.37-5.68,22.77-11,34.3-3-8.63,2.89-18.31,6.17-28,9.33-.81.26-1.89-.31-2.85-.5l2.1-3.7-5.32-1Z" transform="translate(-6712.89 -6826.23)"/><path d="M6997.35,7026.16c3.56-5.09,2.4-7.31-5.38-11.78,3,1.15,6.27,1.91,9,3.53,3.21,1.9,6,4.53,9,6.87a17.55,17.55,0,0,1,1.77,2.1l-14.46-.83A.87.87,0,0,0,6997.35,7026.16Z" transform="translate(-6712.89 -6826.23)"/><path d="M7054.73,7029.45c-.26-1.69-.58-3.38-.75-5.08s-.2-3.41-.28-5.11c1,.6,1.93,1.58,3,1.7,13.66,1.6,27.31,1.81,40.92-.61-5.26-.22-10.51.56-15.74.44-9.39-.22-18.77-1-28.16-1.5-2.44-2.14-4.12-3.67-2.15-7.86,1.34-2.88-.61-7.55-1.66-11.25-1.76-6.23-4.22-12.27-2.9-19a4.57,4.57,0,0,0-.68-2.69c-1.49-2.86-2.47-5.48,1-7.8.57-.38.41-2,.44-3.07.06-2.28,0-4.57.16-7,0-2.14-.76-4.73.17-6.33,1.54-2.64.93-4.44-.87-6.09-7.52-6.93-7.78-16-7.83-25.22,0-5.16-.66-10.31-.9-15.47-.13-2.92,0-5.85,0-9.43l20.85,13.39.88-1.24c-3.94-2.93-8-5.76-11.8-8.82a72.25,72.25,0,0,1-8.52-7.67c-3.55-3.92-4.42-8.36-.72-13.11l23,18.07c-8.6-12-24-19.85-22.23-39l27.51,26.83-13.45-20.8c-4.75-7.32-7.91-15-4.92-24.21,12.27,21.34,29.11,39,45.21,57.34l1-.77c-4.81-5.92-9.94-11.62-14.34-17.83-8.81-12.41-17.95-24.78-19.43-40.7-.18-1.93.5-3.95,1-7.14,4.78,9.15,8.82,17,13,24.85,5.63,10.53,13.47,19.24,21.85,27.68a60.55,60.55,0,0,1,10.6,15.49c4.44,8.82,9.07,17.26,16.07,24.46,7.69,7.9,10.15,17.35,7.22,28.52-4.39,16.76-4.78,33.87-2.58,51.09,1,7.52,5.64,12.41,11.38,18.06-1.53-4.54-2.75-8.18-4-11.82l.68-.27,4.42,6.92.82-.37a31.66,31.66,0,0,1-1.45-3.71c-1.31-5.06-4.39-10.59-3.29-15.1,1.33-5.47-2-11.81,2.94-16.54.3-.28-.78-1.86-.47-2.27,1.53-2.06-3.72-5.44,1.32-6.79a14.42,14.42,0,0,0-.37-2.82c-1.23-7-3.79-14-3.45-20.88.59-11.89-5.33-20.5-11.53-29.34a25.71,25.71,0,0,1-1.52-3.39l8.58,9.6,1.58-1.23-11.7-18.75,5.81-1c-4.09-5.41-8.62-10.85-12.53-16.71-4.08-6.11-7.62-12.58-11.29-19-3.3-5.74-7.07-11.31-9.51-17.41-3.1-7.74-7.28-15.55-4.22-25.57,3,5.72,5.68,10.65,8.18,15.67,5.32,10.68,10,21.73,15.94,32,8.15,14.09,17.87,27.29,25.76,41.52,6.77,12.2,13.25,25,8.9,40-2.09,7.18-3.91,14.44-5.58,21.73-2.93,12.8-2.89,25.46,2.95,37.59,4.22,8.77,9.63,16.71,17.14,23,4.61,3.87,10.14,3.85,15.66,3.11,15.34-2,29.78-6.61,42.75-15.39,3.15-2.13,6.86-3.43,10-5.56a97.62,97.62,0,0,0,12.12-9.24c7-6.53,14.92-10.08,24.53-8.15,2.64.53,5.17,2.14,7.46,3.68a69.68,69.68,0,0,1,6.48,5.49c-3.49-.7-5.38.77-4.54,5.24,7.06-2.57,13.58.7,20.53-.83-.06.79-.13,1.57-.2,2.35-.22.23-.45.68-.65.66-8.5-.62-16.25,1-23.53,5.91-2.8,1.88-6.94,1.77-10.51,2.58-.68-2-1.14-3.31-1.59-4.64l7.45-1.58.05-1.52c-5-3.49-9.79-7.21-15-10.28-1-.61-4.33.72-5.15,2.05-1.94,3.09.26,11.29,3,13.9l5.09-1.9c-3.65,4.31-8.88,5.93-13.62,8.55-9.07,5-17.38,11.42-26.1,17.09-10.79,7-15.79,18.66-23,28.52-5.91,8.08-12.23,15.67-20.85,21,.45-.9.88-1.81,1.31-2.71l-3.48-.17c3.61-4.16,7.25-8.3,10.83-12.48s7.22-8.45,10.75-12.74c1.56-1.89,3.42-3.75,4.24-6,.64-1.72-.13-4-.28-6l-1.71-.51,9.19-10.15c-15.49-7.59-31.95-2.93-48-5,2.25,1.5,6.42,1.17,3.53,5.49-.07.36-.13.72-.2,1.09l-3.77,5.19c.19-3.23.32-5.36.45-7.49l-1.05-.36c-1.08,2.83-2.16,5.67-3.47,9.13-.24-1.87-.41-3.14-.71-5.46-1.49,3-2.54,5.07-3.68,7.33.5-3.27,1-6.47,1.47-9.66l-.81-.28-4.88,12.69V7046.2l-1.13-.88c-.85,8.77-3.61,15.84-14,16l-1.69-3.68v7.44l-.83.09-1.65-7.54-.85-.18-1.12,6.14-.94.26q-.77-2.53-1.55-5.06l-.65,0-.69,5.83h-.9v-7c1.1-2.79,1.84-4.69,2.58-6.59l-1.57-1c-.7,4.45-9.22-1.36-6.92,6.94-1.77-4.1-4.33-3.2-6.65-2.05-5.06,2.5-9.86,5.58-15.06,7.71a25.67,25.67,0,0,1-11.3,2.19c-3.73-.3-7.31-2.5-11.86-4.2l4.7.54c.53-1.76,1.08-3.6,1.6-5.35l-7.2-2.49,3.54-2.43c-3.49-3.33-7.06-6.29-10-9.81-.78-.93.46-3.54.62-4.52l-6.16-7.32h9.06v-1.07l-9.21-2.54C7054.53,7026.94,7054.63,7028.19,7054.73,7029.45Zm41-73.84,1-2a31.3,31.3,0,0,0,4.41,1.48,23.28,23.28,0,0,0,4.18.06l0-1.3c-20-3.88-35.49-16.57-52.25-26.86l36.41,30.07-1.05,1.59-47.45-27.37c19.86,15.8,40.15,28.22,63.11,36l-8.2-5.26.6-1.06,16.08,6.43.33-.8Zm14.86-5.76,1.23-2.35-34.45-16.6-.75,1.5Zm1.89,46.21.07-1.57-35.35-5.5-.26,1.84Zm-.95-17.27-19.08-6.83-.47,1.36A27.63,27.63,0,0,0,7111.53,6978.79Zm-30.83,4-.4,1.58,19.17,5.05.55-2.2Zm32.87,43.7c-9.75-1.81-14.19-1.24-17.59,1.91ZM7098,6977.67l-7.63,2.91C7095.08,6983.66,7097.69,6984,7098,6977.67Z" transform="translate(-6712.89 -6826.23)"/><path d="M7097,7065.79c2.82,5,6.26.46,9.81,1.46.31.67.93,2,2.11,4.54l.8-6.08c1.15,2.08,2.37,4.3,3.68,6.66l-7.76,1.45,8.65,6.94-1.51,1.78,2.46,1.37-10.26,1.74,6.24.91-3.81,2.63,9.45,1.1c0,.48,0,.95-.05,1.42h-37.34l10.47-10.37-5.09.64,4.61-5.7c-5.45,1.22-10.83,4-17-.7-5.22,4.44-13.22,6.89-17.54,14.27a5.87,5.87,0,0,1-2,2.09c-6.21,3.48-12.47,6.87-19.91,10.94l14.13-3.07-1.6,3.8,10.46.93-.08.88-9.59-.61-.33,1.29,5.52,3.91c-15.34,4.57-30.38,9.1-45.45,13.52-6.77,2-12.59.58-17.79-6.12l24-8.61-.18-.62c-5.62,1.65-11.27,3.24-16.87,5-4.83,1.49-4.8,1.57-9.26-2.19,4.88-1.5,9.41-2.83,13.89-4.29,11.24-3.63,22.46-7.33,33.69-11,3.85-1.25,8.1-1.85,11.45-3.92,5.52-3.41,10.46-7.76,15.64-11.72a82.65,82.65,0,0,1,7.95-5.95c1.48-.87,3.65-.47,5.39-1a75.49,75.49,0,0,0,10.13-3.56c8.6-4,17.08-8.34,25.61-12.53l1,2Z" transform="translate(-6712.89 -6826.23)"/><path d="M7161.07,7106.3c-3.37,1.71-6.78,3.36-10.1,5.17-1.86,1-3.41,2.79-5.37,3.41-7,2.21-14,4.18-21.11,6-1.62.41-3.5-.28-5.26-.38-1.6-.08-3.71-.73-4.71,0-5.37,4.08-11.54,2.46-17.32,2.55-4.45.06-8.91-1.55-13.41-2a6.17,6.17,0,0,0-4.3,1.77c-5.75,5.68-12.57,8.12-20.6,8.52-4.75.24-9.42,1.95-14.13,3-6.73,1.46-13.47,3-19.36-4l36.66-2.77c-10.12-2.32-21.81,2.77-32.36-3.47l10.08-4.86c10.44,1.15,22.41,4,34.43-.44-7.2-5.12-15.35-5.16-23.64-5.28,6.33-4.38,14.2,3.16,20.32-2.37l20.23,7.31.52-1.7-3.9-1-.34-1.08c1.28-.55,2.66-1.74,3.8-1.54a149.15,149.15,0,0,1,14.91,3.46c2.11.61,5.82,1.32,7.68.83,3.58-.95,7-1.27,9.64-5,3.07-4.36,8.27-3.2,12.95-2.63,2.14.27,4.55.59,6.48-.1,5-1.75,9.66-4.2,14.59-6.06,2.25-.85,4.79-1,7.18-1.4C7163.44,7103.63,7162.25,7105,7161.07,7106.3Z" transform="translate(-6712.89 -6826.23)"/><path d="M7110.14,6890.07c-17.43-16.14-28.37-35.85-34.29-58.36l2.1-1.23c5.89,9.82,12,19.51,17.61,29.48C7101,6869.67,7107.83,6878.81,7110.14,6890.07Z" transform="translate(-6712.89 -6826.23)"/><path d="M7160.67,7049.68c.07-.37.13-.73.2-1.09,2.18-3.71,5.53-3.32,9.14-2.8l-.87,9.31-1.16,0c-.54-1.42-1.09-2.83-2-5.18l-2.41,7.32C7162.34,7054,7161.5,7051.86,7160.67,7049.68Z" transform="translate(-6712.89 -6826.23)"/><path d="M6765.4,7058.86l-7.12,3.5-.44-.49,11.21-7.87-.54-.54c-2.93,1.91-6.13,3.61-8.73,5.77-4.09,3.42-10.5,4.79-13,9.61-1.16,2.26-2.51,4.46-3.91,6.92l-1.39-.33-1.39,2.39-.72-.08v-5.05l.87,1.73c1.26-2.45,2.27-4.65,3.49-6.77q10.62-18.36,30.86-30.44c5.76-3.44,9.22-4.09,16.53-4.05l-.81-2a3,3,0,0,1,.62-.09c.44.67,1.35,1.52,1.12,2a19.17,19.17,0,0,1-2.67,4c-2.87,3.58-2.53,7.46-1.46,11.31.29,1,1.92,1.8,2.92,2.7.24.21.57.44.64.69.7,2.59.77,2.66,4.35,3.67,3-5.16,7.77-8.86,15-10.66-3.59,3.68-7.19,7.35-11.1,11.33,4.92,1.41,8.62.21,12.25-.7,6.67-1.68,13.31-3.47,19.87-5.4a18.37,18.37,0,0,0,5.31-2.76c5.08-3.62,10.78-3.85,16.36-.82,1.89,1,4.37,1.33,6.57,2,1.42.43,2.83.89,4.66,1.47-.88.6-1.11.9-1.38.93-7.11.85-14.25,1.6-21.35,2.52-11.72,1.53-21.42,5.79-28.37,13.75a19.67,19.67,0,0,1-4.29,3.75c-.92.58-2.48.48-4.07.43,6.74-2.62,10.28-6.57,9.14-12.68-3.1-.32-6.22-.68-9.35-1-2.93-.27-5.87-.52-8.81-.65-4.33-.18-6.09-2.87-7.49-5.37-1.6-2.86-2.29-6.05-3.58-9.65l-.65,4.57-.87-1.1-6.52,7.08Zm76.15-6.14,9.4-.72c-1.27-2.15-1.94-4-3.28-5.36-1.67-1.75-4-1.93-7-.31C6844.94,7047.78,6843.51,7049.9,6841.55,7052.72Z" transform="translate(-6712.89 -6826.23)"/><path d="M6765.4,7058.86l11.81-6.34,6.85-3.45c1.28,2.26,1.28,2.26-2.5,5.84,5-1.07,8.64,0,11.13,4.21-4.35,2.13-8.78,4.36-13.29,6.48a18.67,18.67,0,0,1-4.83,1.61c-1.82.3-3.76.08-5.64.22a19.72,19.72,0,0,0-4.08.63,74.94,74.94,0,0,1-7.28,2c2.38-1.61,4.74-3.25,7.14-4.84s4.76-3.09,7.14-4.63l-.49-.59-17.54,9-.74-.64c2-1.59,3.9-3.21,5.92-4.76S6763.27,7060.44,6765.4,7058.86Z" transform="translate(-6712.89 -6826.23)"/><path d="M6771.49,7101.27c-4.2-3.55-1.37-7-1.14-10.52l-3.2,1.83-.69-3.13c5-.89,9.86-1.31,14.31-2.68s8.36-3.65,12-5.3c-5.75,7.28-6,16.25-6.66,25.34-5.31-2.61-3.8-6.65-4.71-10l-1.26-.12q-1.77,5.52-3.52,11l-1.05-.06c-4.17-5.52.7-11.11.73-16.73C6773.78,7092.45,6773.78,7092.45,6771.49,7101.27Z" transform="translate(-6712.89 -6826.23)"/><path d="M6730.31,7085.44c-3,1-6.1,1.78-9,2.93s-5.5,2.63-8.43,4.05c.65-2.89,21.68-11.72,26.33-11.3l-4.23,2.37.33.55,6-1.55,2,2.92-12,8c-.62-3.07-2.34-3-4.86-1.75-.78.39-2.1,0-3.14.15s-1.83.64-2.77.7a15.9,15.9,0,0,1-2.94-.38c.57-.56,1-1.31,1.72-1.64,3.67-1.67,7.42-3.22,11.14-4.82Z" transform="translate(-6712.89 -6826.23)"/><path d="M6727.55,7099.41c.33-2.52,16.56-12.94,20.06-13.33l.63.66C6741.45,7090.9,6734.67,7095.06,6727.55,7099.41Z" transform="translate(-6712.89 -6826.23)"/><path d="M6743.91,7047.3l-7.56,6.68-.42-.34,7.68-6.59Z" transform="translate(-6712.89 -6826.23)"/></svg>