<svg width="601" height="481" viewBox="0 0 601 481" fill="none" xmlns="http://www.w3.org/2000/svg">
<g opacity="0.25" clip-path="url(#clip0_69:748)">
<path d="M184.273 332.364C179.25 341.214 177.21 352.164 164.888 357.818C166.795 358.719 167.676 359.242 168.64 359.569C175.129 361.731 176.41 367.108 176.841 372.947C177.271 378.785 177.23 384.583 178.266 390.247C179.035 394.457 181.536 398.308 182.674 402.487C186.067 414.984 189.757 427.439 192.187 440.13C194.124 450.261 199.362 457.994 206.036 465.226C206.456 465.687 206.815 466.199 207.574 467.151C199.311 467.653 194.176 463.188 188.384 458.599C190.099 463.249 191.808 467.899 193.509 472.549L192.597 473.697L179.086 462.542C180.91 468.053 182.93 474.127 184.95 480.201L183.658 481L173.838 469.456C174.053 472.129 174.247 474.577 174.534 478.224C167.953 474.629 166.334 468.821 163.576 463.515L161.628 466.352C161.208 466.096 160.757 465.994 160.665 465.748C157.497 457.851 150.414 452.596 146.693 445.088C146.244 444.173 145.689 443.314 145.042 442.527C138.707 435.029 132.31 427.583 126.016 420.054C125.186 419.03 124.991 417.524 124.263 416.459C122.274 413.693 120.091 411.071 118.051 408.347C115.826 405.376 113.664 402.364 111.48 399.373C110.15 397.833 108.959 396.177 107.923 394.426C107.267 393.074 107.359 391.353 106.898 388.403C104.991 385.924 101.352 385.115 96.5751 384.859C90.4244 384.531 84.4683 381.786 78.3279 380.577C67.964 378.58 57.5184 377.013 46.2422 375.118L50.2195 374.473C42.2237 374.8 36.3703 371.482 31.7676 364.517L41.9571 361.167L36.4216 357.173C52.3415 356.036 67.39 364.343 83.2382 358.76C80.5524 362.314 80.5524 362.314 68.1179 363.994L73.3665 365.715L73.3155 366.289L64.7042 365.429C69.0506 367.877 72.6695 370.693 72.403 376.9L98.5127 380.639C98.5742 380.004 98.6459 379.379 98.7074 378.744H90.9675C90.906 378.324 90.8549 377.904 90.7933 377.474L101.864 374.258L99.2094 367.989L101.762 365.582L97.0977 364.885C104.161 356.845 112.936 352.655 123.166 350.852L111.162 359.979C117.395 359.754 121.567 352.409 128.845 356.588L123.658 362.069L134.484 363.964L130.998 368.983L140.47 363.523L141.095 364.291L131.552 372.691L132.157 373.489L143.904 365.357L144.499 365.941L141.126 370.119L145.678 368.511L146.18 369.126L140.89 374.76L141.403 375.497L148.148 370.693L148.527 371.154L127.093 400.295L128.118 401.053C133.397 393.945 138.625 386.805 143.986 379.758C145.683 377.406 147.628 375.242 149.788 373.305C151.834 371.612 154.326 370.545 156.964 370.232L143.217 393.095L145.083 394.211L153.663 378.846L154.412 379.093C154.094 380.598 153.786 382.094 153.263 384.532L158.953 377.495C155.652 386.928 152.607 395.614 149.563 404.3L151.069 404.905L158.994 384.747L160.87 386.887C162.274 384.193 163.504 381.766 164.898 379.123C161.823 396.669 158.799 413.775 155.785 430.891L157.466 431.229C159.373 415.578 161.423 399.958 167.297 384.532C167.697 389.223 168.035 393.146 168.322 397.069H170.372C171.288 389.714 172.194 382.367 173.089 375.026L171.664 374.842L170.875 381.049H169.788C169.788 378.396 169.03 375.446 169.942 373.162C171.674 368.87 170.065 366.34 166.949 363.882C164.898 362.284 163.043 360.471 160.798 358.463L157.333 361.351L153.335 358.637C153.438 352.686 163.228 354.243 162.1 347.37L153.192 354.837L146.303 350.381C147.02 349.93 148.445 349.009 149.87 348.087L149.44 347.288L146.456 347.677C149.337 339.637 159.486 343.058 164.283 336.738L159.783 336.328L166.672 331.893C162.018 331.893 158.01 335.263 156.277 329.506L160.019 326.034L151.336 326.464L155.919 323.237L147.902 324.395C152.002 320.841 154.862 317.573 160.039 317.225C165.441 316.897 170.773 315.453 176.165 314.9C178.215 314.685 180.439 315.586 182.582 315.924C183.412 316.068 184.519 316.518 185.062 316.16C193.571 310.475 203.699 312.718 212.945 310.577C218.758 309.225 223.914 307.504 228.65 303.93C236.42 298.009 242.899 298.603 250.269 304.954C251.93 306.388 254.534 306.798 256.769 307.494C259.003 308.191 261.156 308.579 263.36 309.112L263.299 310.475L252.023 312.145L258.901 316.242L258.655 317.512L242.109 315.74C244.836 311.96 243.422 308.129 240.992 305.732C239.239 303.991 235.057 302.977 232.791 303.837C227.932 305.681 228.168 310.321 229.398 314.9L234.8 316.18C217.425 320.984 199.383 320.411 184.806 331.248C187.512 328.933 190.229 325.86 188.291 322.551C184.755 316.518 178.389 316.959 173.386 317.379L167.461 323.811L169.891 325.163L167.072 327.714L174.647 328.113L170.475 331.063L172.771 332.087L166.621 341.47L167.717 342.279L172.269 340.077C172.673 340.359 173.047 340.682 173.386 341.04C173.915 342.06 174.54 343.027 175.252 343.928C175.447 344.143 177.19 343.375 177.169 343.201C176.965 342.074 176.62 340.976 176.144 339.934C175.519 338.479 174.78 337.065 174.278 336.02L179.229 336.625L184.273 332.364Z" fill="#060100"/>
<path d="M167.205 126.624C177.251 134.521 187.287 142.449 197.374 150.306C206.344 157.322 212.699 165.926 213.919 178.402C212.699 175.831 211.716 173.783 210.742 171.734L209.491 172.389L210.978 174.633L210.567 175.749L195.314 171.652L195.068 172.369L208.507 177.644L208.281 178.484H197.19V186.514L192.505 187.067L204.54 191.318L199.486 192.527L206.662 195.405L204.683 198.724L205.903 200.455L187.154 204.286L187.339 205.034C191.572 204.562 195.806 203.876 200.06 203.692C203.638 203.528 207.871 202.493 209.286 207.912C204.693 213.843 197.395 211.057 191.695 213.802H212.31L212.576 214.826L198.451 219.876L198.717 221.043L213.223 217.633L211.47 221.955L219.855 220.767L220.008 221.371L205.073 228.08L205.401 228.931L213.55 226.411C206.088 231.645 198.809 236.9 189.635 238.702C186.621 239.276 182.295 239.44 181.024 244.152C180.737 245.176 178.676 246.108 177.272 246.477C169.614 248.525 162.06 251.352 153.869 249.888C152.721 249.673 151.429 250.236 150.045 249.97L157.621 247.235L157.508 246.354H150.937L150.773 245.217L166.221 240.895L162.295 237.617H188.835C188.21 235.824 187.81 234.472 187.277 233.222C185.893 230.149 186.129 227.937 189.676 226.82C191.623 226.206 193.489 225.366 195.396 224.628L195.006 223.399L181.844 227.425L186.969 222.826L180.306 223.564L183.381 220.798L177.733 222.017L177.518 221.504L180.921 219.087H176.585L176.257 218.216L182.695 215.697V215.041L170.711 215.881C169.481 213.894 175.345 213.249 170.568 211.108L176.718 208.895L176.657 208.455H167.841L167.78 208.035L173.1 206.211L166.949 205.331L171.808 204.009L171.931 203.323L163.894 202.063L167.103 200.158L157.323 198.601V197.854C159.792 197.992 162.266 197.992 164.735 197.854C168.189 197.464 171.593 196.399 175.047 196.215C176.749 196.122 178.492 197.495 180.286 197.884C181.136 198.068 182.141 197.515 183.085 197.3L183.033 195.866L161.106 191.216L160.85 192.117L168.251 194.033L138.923 191.892L138.749 191.185L144.899 189.874L133.192 188.583V187.447H145.955L146.211 186.115L127.81 181.413V180.297L136.483 178.863L125.207 175.985L125.309 175.114H135.765L136.052 174.295L126.006 169.306L126.744 167.565L174.607 183.902C176.114 178.924 172.311 176.2 169.871 172.901C169.286 172.123 167.821 171.426 167.821 170.853C168.702 164.338 162.9 161.009 161.178 155.785C160.784 154.316 160.476 152.825 160.255 151.319L168.753 155.192L169.009 154.73L154.945 143.76L155.97 142.203L171.552 150.899C166.427 144.825 158.226 142.357 154.258 135.166L155.017 134.009L165.268 140.411C162.192 136.129 158.779 131.428 155.376 126.736H157.057L171.675 138.823L172.105 138.219C168.777 134.388 165.442 130.56 162.1 126.736L167.205 126.624ZM175.898 177.644L175.283 179.426C179.435 182.182 184.837 181.383 189.522 182.643L175.898 177.644Z" fill="#060100"/>
<path d="M244.519 238.477C240.634 243.475 236.677 248.474 230.3 250.471C224.15 252.387 217.886 253.749 211.849 255.859C208.353 257.078 205.196 259.311 201.885 261.073C200.581 261.896 199.209 262.605 197.784 263.194C194.135 264.402 190.67 267.721 186.621 264.218L189.594 261.698C185.032 262.487 180.901 263.675 179.834 257.826L198 256.085L198.092 254.938L193.243 254.272L195.816 253.176V252.315L188.794 251.609C193.633 249.027 199.67 249.56 201.741 252.571L206.026 251.547C206.99 252.489 207.923 253.862 208.312 253.719C215.221 251.097 223.279 252.909 229.593 248.177C233.632 245.155 237.425 241.806 241.392 238.672C242.195 238.181 243.051 237.786 243.945 237.494L244.519 238.477Z" fill="#060100"/>
<path d="M291.5 204.675C289.603 204.982 287.666 205.7 285.811 205.536C279.096 204.932 273.888 208.352 269.029 212.163C264.642 215.584 260.829 219.763 256.728 223.615C256.134 224.168 255.58 225.048 254.903 225.182C253.424 225.367 251.934 225.439 250.444 225.397C251.108 224.016 251.919 222.711 252.863 221.505C254.171 220.359 255.578 219.33 257.066 218.432C256.574 214.652 254.134 215.144 251.531 215.512C248.88 215.932 246.173 215.821 243.566 215.185C244.469 214.875 245.399 214.652 246.344 214.519C254.75 214.161 261.485 209.848 267.963 205.003C271.664 202.227 275.139 199.113 278.747 196.266C281.823 193.91 284.99 195.108 288.998 200.045L286.333 204.809H291.541L291.5 204.675Z" fill="#060100"/>
<path d="M151.829 256.321C163.484 250.503 175.17 245.053 186.99 253.248C178.143 256.208 168.22 259.567 158.287 262.804C157.456 263.07 156.35 262.486 155.365 262.292L157.518 258.502L152.064 257.478L151.829 256.321Z" fill="#060100"/>
<path d="M291.602 204.788C295.252 199.574 294.063 197.3 286.087 192.721C289.163 193.899 292.515 194.678 295.313 196.338C298.604 198.284 301.464 200.977 304.539 203.374C305.199 204.043 305.806 204.762 306.354 205.525L291.53 204.675C291.551 204.714 291.576 204.752 291.602 204.788Z" fill="#060100"/>
<path d="M350.423 208.158C350.156 206.427 349.828 204.696 349.654 202.954C349.48 201.213 349.449 199.461 349.367 197.72C350.392 198.335 351.346 199.339 352.442 199.461C366.445 201.1 380.438 201.316 394.39 198.837C388.998 198.611 383.616 199.41 378.254 199.287C368.629 199.062 359.013 198.263 349.388 197.751C346.886 195.559 345.164 193.992 347.183 189.7C348.557 186.75 346.558 181.967 345.482 178.177C343.678 171.795 341.156 165.609 342.509 158.715C342.568 157.747 342.325 156.784 341.812 155.96C340.285 153.03 339.28 150.346 342.837 147.97C343.421 147.581 343.257 145.922 343.288 144.826C343.35 142.49 343.288 140.145 343.452 137.655C343.452 135.464 342.673 132.81 343.626 131.172C345.205 128.467 344.58 126.624 342.734 124.934C335.026 117.835 334.759 108.545 334.708 99.1008C334.708 93.8154 334.031 88.5401 333.785 83.2547C333.652 80.2637 333.785 77.2629 333.785 73.5959L355.159 87.3114L356.061 86.041C352.022 83.0398 347.86 80.1412 343.965 77.0069C340.85 74.6234 337.929 71.9964 335.231 69.1506C331.592 65.1353 330.7 60.5871 334.493 55.7217L358.07 74.2311C349.254 61.9395 333.467 53.8988 335.282 34.2834L363.483 61.7649L349.695 40.4597C344.826 32.9619 341.586 25.0953 344.652 15.6615C357.23 37.5201 374.492 55.609 390.997 74.3946L392.022 73.6059C387.091 67.542 381.832 61.7035 377.322 55.3426C368.291 42.631 358.921 29.9608 357.404 13.654C357.219 11.6771 357.916 9.60783 358.429 6.34032C363.329 15.7126 367.47 23.7535 371.755 31.7942C377.527 42.5801 385.564 51.5019 394.154 60.147C398.579 64.8393 402.246 70.1921 405.02 76.0131C409.572 85.0474 414.318 93.6924 421.494 101.067C429.377 109.159 431.898 118.839 428.895 130.28C424.394 147.448 423.995 164.973 426.25 182.612C427.275 190.314 432.032 195.323 437.916 201.11C436.347 196.46 435.097 192.732 433.815 189.003L434.512 188.727L439.043 195.815L439.884 195.436C439.309 194.202 438.812 192.932 438.397 191.636C437.054 186.453 433.897 180.789 435.025 176.169C436.388 170.566 432.975 164.072 438.039 159.227C438.346 158.94 437.239 157.322 437.557 156.902C439.125 154.792 433.743 151.33 438.91 149.947C438.879 148.974 438.752 148.006 438.531 147.058C437.27 139.888 434.646 132.718 434.994 125.671C435.599 113.492 429.531 104.673 423.175 95.6183C422.572 94.4999 422.052 93.3393 421.617 92.1458L430.412 101.979L432.031 100.719L420.038 81.5137L425.994 80.4894C421.801 74.9479 417.157 69.3758 413.149 63.3734C408.967 57.1149 405.338 50.4877 401.576 43.9117C398.193 38.0323 394.328 32.3268 391.827 26.0786C388.649 18.1505 384.364 10.1509 387.501 -0.112553C390.576 5.74643 393.324 10.7961 395.886 15.9381C401.34 26.8776 406.137 38.1961 412.227 48.7156C420.581 63.148 430.545 76.6688 438.633 91.2445C445.573 103.741 452.216 116.852 447.757 132.216C445.614 139.571 443.749 147.007 442.037 154.474C439.033 167.585 439.074 180.553 445.06 192.978C449.386 201.961 454.932 210.094 462.631 216.536C467.357 220.5 473.026 220.48 478.684 219.722C494.409 217.674 509.212 212.952 522.508 203.958C525.737 201.777 529.54 200.445 532.759 198.263C537.141 195.437 541.295 192.272 545.183 188.798C552.359 182.11 560.477 178.474 570.329 180.45C573.035 180.993 575.629 182.643 577.976 184.22C580.303 185.958 582.521 187.836 584.619 189.843C581.041 189.126 579.104 190.632 579.965 195.211C587.202 192.578 593.886 195.928 601.01 194.361C600.949 195.17 600.877 195.969 600.805 196.768C600.58 197.003 600.344 197.464 600.139 197.444C591.426 196.809 583.481 198.468 576.018 203.497C573.148 205.423 568.904 205.31 565.244 206.14C564.547 204.091 564.076 202.749 563.614 201.387L571.251 199.769L571.303 198.212C566.177 194.637 561.267 190.827 555.926 187.682C554.901 187.057 551.487 188.419 550.646 189.782C548.658 192.947 550.913 201.346 553.722 204.02L558.94 202.073C555.198 206.488 549.837 208.148 544.978 210.831C535.68 215.953 527.161 222.529 518.222 228.336C507.162 235.506 502.036 247.45 494.645 257.549C488.587 265.826 482.108 273.6 473.271 279.06C473.733 278.138 474.174 277.206 474.614 276.284L471.047 276.11C474.748 271.849 478.479 267.608 482.149 263.327C485.819 259.045 489.55 254.671 493.169 250.277C494.768 248.341 496.675 246.436 497.516 244.131C498.172 242.369 497.382 240.034 497.228 237.985L495.475 237.463L504.896 227.067C489.017 219.292 472.144 224.065 455.691 221.945C457.997 223.481 462.272 223.143 459.31 227.568C459.238 227.937 459.176 228.306 459.105 228.685L455.24 234.001C455.435 230.693 455.568 228.511 455.701 226.329L454.625 225.96C453.518 228.859 452.411 231.768 451.068 235.312C450.822 233.396 450.648 232.096 450.34 229.719C448.813 232.792 447.736 234.913 446.568 237.227C447.08 233.878 447.593 230.6 448.075 227.333L447.244 227.046L442.241 240.044V225.315L441.083 224.413C440.212 233.396 437.383 240.638 426.732 240.802L424.999 237.033V244.654L424.148 244.746L422.457 237.022L421.586 236.838L420.437 243.127L419.474 243.394C418.948 241.666 418.418 239.938 417.885 238.211H417.219L416.512 244.182H415.589V237.012C416.716 234.155 417.475 232.208 418.234 230.262L416.624 229.238C415.907 233.796 407.173 227.845 409.531 236.347C407.716 232.147 405.092 233.069 402.714 234.247C397.527 236.807 392.606 239.962 387.276 242.144C383.634 243.758 379.673 244.525 375.692 244.387C371.868 244.08 368.198 241.827 363.534 240.085L368.352 240.638C368.895 238.836 369.459 236.951 369.992 235.158L362.611 232.608L366.24 230.119C362.663 226.708 359.003 223.676 355.989 220.07C355.19 219.118 356.46 216.444 356.624 215.441L350.31 207.943H359.598V206.847L350.156 204.245C350.218 205.587 350.32 206.867 350.423 208.158ZM392.452 132.524L393.477 130.475C394.944 131.092 396.456 131.598 397.998 131.991C399.422 132.14 400.856 132.16 402.283 132.052V130.721C381.781 126.747 365.902 113.749 348.721 103.208L386.045 134.009L384.969 135.637L336.328 107.602C356.686 123.786 377.485 136.508 401.022 144.477L392.616 139.089L393.232 138.004L409.715 144.59L410.053 143.77L392.452 132.524ZM407.685 126.624L408.946 124.217L373.631 107.213L372.863 108.75L407.685 126.624ZM409.623 173.957L409.694 172.349L373.457 166.715L373.19 168.599L409.623 173.957ZM408.649 156.267L389.09 149.271L388.608 150.664C394.335 155.005 401.499 157.008 408.649 156.267ZM377.045 160.364L376.635 161.983L396.286 167.155L396.85 164.902L377.045 160.364ZM410.74 205.126C400.745 203.272 396.194 203.856 392.708 207.082L410.74 205.126ZM394.779 155.12L386.958 158.1C391.786 161.255 394.461 161.603 394.779 155.12Z" fill="#060100"/>
<path d="M393.754 245.381C396.645 250.502 400.171 245.852 403.81 246.876C404.128 247.563 404.764 248.925 405.973 251.527L406.794 245.299C407.972 247.429 409.223 249.703 410.566 252.121L402.611 253.606L411.478 260.714L409.93 262.538L412.452 263.941L401.934 265.723L408.331 266.655L404.425 269.349L414.112 270.476C414.112 270.968 414.113 271.449 414.061 271.931H375.784L386.517 261.308L381.299 261.964L386.025 256.125C380.438 257.375 374.923 260.223 368.598 255.409C363.247 259.957 355.046 262.466 350.617 270.025C350.123 270.899 349.419 271.635 348.567 272.166C342.201 275.731 335.784 279.203 328.157 283.372L342.642 280.227L341.002 284.12L351.725 285.072L351.642 285.974L341.812 285.349L341.473 286.67L347.132 290.675C331.407 295.356 315.989 299.996 300.541 304.523C293.601 306.572 287.635 305.118 282.304 298.255L306.907 289.436L306.722 288.801C300.961 290.491 295.169 292.12 289.429 293.922C284.478 295.449 284.509 295.531 279.937 291.679C284.939 290.143 289.582 288.78 294.175 287.285C305.697 283.567 317.199 279.777 328.711 276.018C332.657 274.737 337.014 274.122 340.448 272.002C346.107 268.509 351.171 264.054 356.481 259.998C359.073 257.805 361.794 255.769 364.63 253.903C366.148 253.012 368.372 253.421 370.156 252.878C373.7 251.911 377.17 250.692 380.54 249.232C389.356 245.135 398.049 240.689 406.794 236.398L407.819 238.446L393.754 245.381Z" fill="#060100"/>
<path d="M459.433 286.875C455.978 288.626 452.483 290.317 449.079 292.171C447.173 293.195 445.584 295.028 443.575 295.663C436.399 297.927 429.223 299.945 421.935 301.809C420.274 302.229 418.347 301.523 416.542 301.42C414.902 301.338 412.739 300.672 411.714 301.42C406.209 305.599 399.885 303.94 393.959 304.032C389.398 304.093 384.826 302.444 380.213 301.983C378.563 301.99 376.981 302.641 375.805 303.796C369.91 309.614 362.919 312.114 354.688 312.523C349.818 312.769 345.031 314.521 340.202 315.596C333.303 317.092 326.394 318.669 320.356 311.499L357.937 308.662C347.563 306.285 335.58 311.499 324.765 305.108L335.097 300.13C345.799 301.308 358.07 304.226 370.392 299.679C363.011 294.434 354.656 294.393 346.158 294.271C352.647 289.784 360.715 297.507 366.989 291.843L387.727 299.331L388.26 297.589L384.262 296.565L383.913 295.459C385.225 294.896 386.64 293.677 387.809 293.881C392.961 294.801 398.062 295.983 403.093 297.425C405.256 298.05 409.059 298.778 410.966 298.276C414.636 297.303 418.142 296.975 420.848 293.154C423.995 288.688 429.325 289.876 434.123 290.46C436.317 290.736 438.787 291.065 440.766 290.358C445.891 288.565 450.668 286.056 455.722 284.151C458.029 283.28 460.632 283.126 463.082 282.717C461.862 284.14 460.642 285.543 459.433 286.875Z" fill="#060100"/>
<path d="M407.224 65.391C389.357 48.8588 378.142 28.6701 372.073 5.6131L374.226 4.35324C380.264 14.4118 386.527 24.3373 392.278 34.5495C397.855 44.4955 404.856 53.8574 407.224 65.391Z" fill="#060100"/>
<path d="M459.022 228.88C459.094 228.501 459.156 228.132 459.228 227.763C461.462 223.963 464.896 224.362 468.597 224.895L467.705 234.431H466.516C465.962 232.977 465.399 231.532 464.466 229.125L461.995 236.623C460.734 233.305 459.873 231.113 459.022 228.88Z" fill="#060100"/>
<path d="M53.8283 238.282L46.5295 241.867L46.0785 241.366L57.5699 233.304L57.0163 232.751C54.0127 234.708 50.7324 236.449 48.0671 238.661C43.8744 242.164 37.3035 243.568 34.7407 248.505C33.5516 250.82 32.168 253.073 30.7329 255.593L29.3079 255.255L27.8828 257.703L27.145 257.621V252.448L28.037 254.22C29.3286 251.711 30.3637 249.457 31.6143 247.286C38.8721 234.748 49.4169 224.355 63.249 216.106C69.1536 212.583 72.7008 211.917 80.1943 211.958L79.3639 209.909C79.572 209.857 79.7851 209.825 79.9996 209.817C80.4507 210.503 81.3831 211.374 81.1474 211.866C80.4108 213.341 79.4912 214.717 78.4104 215.963C75.4683 219.63 75.8169 223.604 76.9138 227.548C77.2111 228.572 78.8819 229.392 79.907 230.313C80.153 230.529 80.4915 230.764 80.5632 231.02C81.2808 233.673 81.3527 233.745 85.0225 234.779C88.0979 229.494 92.9876 225.704 100.399 223.86C96.719 227.629 93.0285 231.389 89.0204 235.465C94.0639 236.91 97.8568 235.681 101.578 234.749C108.415 233.028 115.222 231.194 121.947 229.217C123.904 228.578 125.743 227.624 127.39 226.39C132.598 222.682 138.441 222.447 144.161 225.551C146.098 226.575 148.64 226.913 150.896 227.599C152.351 228.04 153.797 228.51 155.673 229.105C154.771 229.719 154.535 230.027 154.258 230.057C146.97 230.928 139.65 231.696 132.372 232.639C120.358 234.206 110.414 238.569 103.29 246.723C102.018 248.21 100.537 249.503 98.892 250.564C97.9489 251.158 96.3499 251.055 94.72 251.004C101.629 248.32 105.258 244.275 104.09 238.016C100.912 237.688 97.7134 237.32 94.5048 236.992C91.5012 236.715 88.4873 236.459 85.4735 236.326C81.0348 236.142 79.2304 233.386 77.7952 230.826C76.1551 227.896 75.4482 224.629 74.1258 220.941L73.459 225.622L72.5676 224.495L65.8839 231.747L53.8283 238.282ZM131.89 231.993L141.527 231.256C140.225 229.053 139.538 227.159 138.164 225.766C136.452 223.973 134.064 223.789 130.988 225.448C135.365 226.933 133.899 229.105 131.89 231.993Z" fill="#060100"/>
<path d="M53.8284 238.282L65.9349 231.788L72.957 228.254C74.2692 230.569 74.2692 230.57 70.3943 234.237C75.5198 233.141 79.2511 234.237 81.8036 238.549C77.3444 240.731 72.8031 243.015 68.1799 245.186C66.6125 245.959 64.9466 246.514 63.2285 246.835C61.3628 247.143 59.3745 246.917 57.4473 247.061C56.0344 247.129 54.6325 247.345 53.2648 247.706C50.8132 248.514 48.3222 249.197 45.8017 249.755C48.2414 248.105 50.6608 246.426 53.1211 244.797C55.5814 243.169 58.0007 241.632 60.4405 240.054L59.938 239.45L41.9575 248.669L41.1992 248.013C43.2494 246.384 45.1971 244.725 47.2678 243.138C49.3385 241.55 51.6449 239.901 53.8284 238.282Z" fill="#060100"/>
<path d="M60.0716 281.723C55.7662 278.087 58.6671 274.553 58.9028 270.947L55.6223 272.822L54.915 269.616C60.0406 268.704 65.0227 268.274 69.5844 266.871C74.1461 265.467 78.1543 263.132 81.8857 261.442C75.9913 268.899 75.7349 278.087 75.0583 287.398C69.615 284.724 71.1629 280.586 70.2301 277.155L68.9387 277.031C67.7291 280.801 66.5263 284.557 65.3303 288.299L64.2536 288.237C59.9789 282.583 64.9712 276.857 65.0019 271.101C62.4187 272.688 62.4191 272.689 60.0716 281.723Z" fill="#060100"/>
<path d="M17.8571 265.508C14.7817 266.532 11.6039 267.331 8.63109 268.509C5.65828 269.687 2.99282 271.203 -0.0107422 272.658C0.655578 269.697 22.2137 260.653 26.9804 261.083L22.6442 263.511L22.9826 264.074L29.1332 262.487L31.1835 265.477L18.8822 273.672C18.2466 270.527 16.4836 270.599 13.9003 271.879C13.1007 272.279 11.7474 271.879 10.6813 272.033C9.6152 272.187 8.80534 272.688 7.84174 272.75C6.8272 272.714 5.81827 272.584 4.82798 272.36C5.4123 271.787 5.85281 271.019 6.59089 270.681C10.353 268.97 14.1973 267.382 18.0107 265.744L17.8571 265.508Z" fill="#060100"/>
<path d="M15.0278 279.818C15.3661 277.237 32.0037 266.563 35.5915 266.164L36.2377 266.84C29.2773 271.101 22.3266 275.362 15.0278 279.818Z" fill="#060100"/>
<path d="M31.799 226.441L24.0491 233.284L23.6187 232.936L31.4912 226.185L31.799 226.441Z" fill="#060100"/>
</g>
<defs>
<clipPath id="clip0_69:748">
<rect width="601" height="481" fill="white"/>
</clipPath>
</defs>
</svg>
