<svg width="32" height="32" viewBox="0 0 32 32" fill="none" xmlns="http://www.w3.org/2000/svg">
<path d="M26.4762 2.66669H5.52383C3.94645 2.66669 2.66669 3.94645 2.66669 5.52383V26.4762C2.66669 28.0536 3.94645 29.3334 5.52383 29.3334H26.4762C28.0536 29.3334 29.3334 28.0536 29.3334 26.4762V5.52383C29.3334 3.94645 28.0536 2.66669 26.4762 2.66669ZM26.0893 21.4107C25.881 21.8929 25.0119 22.2441 23.4226 22.4941C23.3393 22.6072 23.2738 23.0774 23.1667 23.4405C23.1012 23.6607 22.9464 23.7917 22.6845 23.7917H22.6726C22.3036 23.7917 21.9107 23.6191 21.1369 23.6191C20.0893 23.6191 19.7262 23.8572 18.9107 24.4345C18.0476 25.0476 17.2203 25.5715 15.9822 25.5179C14.7322 25.6131 13.6845 24.8512 13.0953 24.4345C12.2738 23.8572 11.9167 23.6191 10.8691 23.6191C10.125 23.6191 9.65478 23.8036 9.33335 23.8036C9.01193 23.8036 8.88693 23.6072 8.83931 23.4465C8.73216 23.0834 8.66669 22.6072 8.58335 22.4941C7.76193 22.3691 5.91669 22.0476 5.87502 21.2203C5.86312 21.006 6.01193 20.8155 6.22621 20.7798C8.98216 20.3274 10.2203 17.5 10.2738 17.381C10.2738 17.375 10.2798 17.3691 10.2857 17.3631C10.4345 17.0655 10.4643 16.8155 10.381 16.6191C10.1786 16.1488 9.3155 15.9822 8.9524 15.8334C8.01193 15.4643 7.88097 15.0357 7.9405 14.7441C8.03573 14.2381 8.79764 13.9226 9.24407 14.131C9.59526 14.2976 9.91073 14.381 10.1786 14.381C10.375 14.381 10.506 14.3334 10.5714 14.2976C10.4881 12.875 10.2917 10.8453 10.7976 9.70835C12.1369 6.71431 14.9703 6.47621 15.8036 6.47621C15.8393 6.47621 16.1667 6.47026 16.2024 6.47026C18.2679 6.47026 20.25 7.52978 21.2203 9.7024C21.7262 10.8393 21.5298 12.8631 21.4465 14.2917C21.5119 14.3274 21.6191 14.3691 21.7857 14.375C22.0417 14.3631 22.3334 14.2798 22.6607 14.125C22.8988 14.0119 23.2322 14.0298 23.4703 14.125C23.8453 14.2619 24.0834 14.5298 24.0893 14.8334C24.0953 15.2203 23.75 15.5536 23.0655 15.8214C22.9822 15.8572 22.881 15.8869 22.7738 15.9226C22.3869 16.0476 21.7976 16.2322 21.6429 16.6072C21.5595 16.8036 21.5953 17.0536 21.7381 17.3512C21.7441 17.3572 21.7441 17.3631 21.75 17.3691C21.8036 17.4881 23.0417 20.3155 25.7976 20.7679C26.0357 20.8274 26.2203 21.0953 26.0893 21.4107V21.4107Z" fill="#FFFCF3"/>
</svg>
